<?xml version="1.0" encoding="UTF-8"?><svg xmlns="http://www.w3.org/2000/svg" viewBox="0 0 2551.36 2547.56"><g id="a"><rect x="28.76" y="46.14" width="2482.36" height="2482.36" rx="370.12" ry="370.12" style="stroke:#00ff04; stroke-miterlimit:10;"/></g><g id="b"><rect x="211.76" y="229.32" width="1029.21" height="1029.21" rx="319.77" ry="319.77" style="fill:#f60; stroke:#00ff04; stroke-miterlimit:10;"/></g><g id="c"><rect x="1299.91" y="203.71" width="1029.21" height="1029.21" rx="319.77" ry="319.77" style="fill:red; stroke:#00ff04; stroke-miterlimit:10;"/></g><g id="d"><rect x="1320.21" y="1326.32" width="1029.21" height="1029.21" rx="319.77" ry="319.77" style="fill:#0c0; stroke:#00ff04; stroke-miterlimit:10;"/></g><g id="e"><rect x="211.76" y="1326.32" width="1029.21" height="1029.21" rx="319.77" ry="319.77" style="fill:#30f; stroke:#00ff04; stroke-miterlimit:10;"/></g><g id="f"><rect x="255.13" y="271.01" width="2021.41" height="2021.41" rx="395.98" ry="395.98" transform="translate(1277.07 -519.67) rotate(45)" style="fill:#0081ff; stroke:#00ff04; stroke-miterlimit:10;"/></g><g id="g"><g><path d="M741.94,969.13H330.67v221h378.69c27.86,0,48.66,6.22,62.39,18.66,13.72,12.44,20.59,28.86,20.59,49.23s-6.77,37-20.28,49.84c-13.53,12.84-34.42,19.27-62.7,19.27H330.67v257h425.41c28.69,0,50.3,6.66,64.84,19.97s21.83,31.03,21.83,53.14-7.28,38.61-21.83,51.92-36.16,19.97-64.84,19.97H259.81c-39.84,0-68.5-8.8-85.95-26.42-17.47-17.62-26.19-46.09-26.19-85.44V939.99c0-26.22,3.89-47.64,11.7-64.23s20.03-28.67,36.67-36.25c16.62-7.58,37.89-11.38,63.77-11.38h482.12c29.09,0,50.7,6.47,64.84,19.41s21.22,29.86,21.22,50.78-7.08,38.48-21.22,51.42-35.75,19.39-64.84,19.39Z" style="fill:#fff;"/><path d="M1142.42,1502.33v139.92c0,33.97-8,59.44-24,76.41s-36.31,25.47-60.92,25.47-44.11-8.61-59.7-25.8c-15.59-17.2-23.38-42.61-23.38-76.2v-466.95c0-75.36,27.28-113.05,81.84-113.05,27.91,0,48,8.84,60.31,26.53s19.08,43.81,20.31,78.36c20.06-34.55,40.66-60.67,61.77-78.36s49.28-26.53,84.53-26.53,69.47,8.84,102.67,26.52c33.19,17.69,49.8,41.12,49.8,70.31,0,20.56-7.08,37.52-21.22,50.88-14.14,13.38-29.41,20.05-45.8,20.05-6.16,0-21.02-3.78-44.58-11.38-23.56-7.58-44.36-11.38-62.39-11.38-24.59,0-44.67,6.45-60.23,19.33-15.58,12.89-27.67,32.02-36.28,57.39s-14.55,55.55-17.83,90.52c-3.28,34.98-4.91,77.64-4.91,127.97Z" style="fill:#fff;"/><path d="M1612.77,984.13c-23.39,0-43.39-7.16-60-21.5-16.62-14.33-24.92-34.59-24.92-60.81,0-23.75,8.5-43.3,25.53-58.66,17.03-15.34,36.83-23.03,59.39-23.03s41.02,6.97,57.84,20.89c16.81,13.92,25.23,34.19,25.23,60.8s-8.22,45.98-24.62,60.52-35.89,21.8-58.45,21.8Zm83.08,173.23v484.77c0,33.59-8,59-24,76.2-16,17.19-36.31,25.8-60.92,25.8s-44.62-8.81-60-26.42c-15.39-17.61-23.08-42.8-23.08-75.58v-479.84c0-33.19,7.69-58.17,23.08-74.97,15.38-16.78,35.38-25.19,60-25.19s44.92,8.41,60.92,25.19c16,16.8,24,40.14,24,70.05Z" style="fill:#fff;"/><path d="M2286.15,1667.34l-148.16-243.22-90.97,85.98v133.28c0,32.36-8.5,57.23-25.48,74.64-16.98,17.39-36.53,26.09-58.62,26.09-25.8,0-46.06-8.61-60.8-25.81-14.73-17.22-22.09-42.62-22.09-76.23V926.47c0-37.28,7.16-65.67,21.48-85.14s34.8-29.2,61.41-29.2,46.23,8.83,61.39,26.47c15.14,17.64,22.72,43.69,22.72,78.14v407.39l188.72-198.03c23.36-24.59,41.19-41.41,53.48-50.44,12.28-9.02,27.25-13.53,44.88-13.53,20.91,0,38.31,6.66,52.25,19.97s20.91,30.02,20.91,50.08c0,24.58-22.75,57.34-68.23,98.3l-89.14,81.72,172.12,270.34c12.7,20.08,21.83,35.34,27.36,45.78s8.3,20.38,8.3,29.8c0,26.62-7.28,47.62-21.83,62.98-14.55,15.34-33.7,23.03-57.47,23.03-20.5,0-36.28-5.53-47.34-16.58-11.06-11.06-26.03-31.12-44.88-60.2Z" style="fill:#fff;"/></g></g></svg>